<svg xmlns="http://www.w3.org/2000/svg" xmlns:xlink="http://www.w3.org/1999/xlink" width="500" zoomAndPan="magnify" viewBox="0 0 375 374.999991" height="500" preserveAspectRatio="xMidYMid meet" version="1.0"><defs><g/></defs><rect x="-37.5" width="450" fill="#ffffff" y="-37.499999" height="449.999989" fill-opacity="1"/><rect x="-37.5" width="450" fill="#000000" y="-37.499999" height="449.999989" fill-opacity="1"/><g fill="#ad3ecd" fill-opacity="1"><g transform="translate(97.918868, 190.22208)"><g><path d="M 0.425781 -30.242188 L 8.007812 0 L 23.945312 0 L 31.527344 -30.242188 L 21.730469 -30.242188 L 15.976562 -7.308594 L 10.222656 -30.242188 Z M 0.425781 -30.242188 "/></g></g></g><g fill="#ad3ecd" fill-opacity="1"><g transform="translate(129.86182, 190.22208)"><g><path d="M 6.0625 -30.242188 C 3.691406 -30.242188 1.710938 -28.300781 1.710938 -25.929688 L 1.710938 -4.316406 C 1.710938 -1.945312 3.691406 0 6.0625 0 L 23.75 0 C 26.121094 0 28.066406 -1.945312 28.066406 -4.316406 L 28.066406 -25.929688 C 28.066406 -28.300781 26.121094 -30.242188 23.75 -30.242188 Z M 12.089844 -22.898438 L 17.726562 -22.898438 C 18.191406 -22.898438 18.582031 -22.507812 18.582031 -22.042969 L 18.582031 -8.203125 C 18.582031 -7.734375 18.191406 -7.347656 17.726562 -7.347656 L 12.089844 -7.347656 C 11.625 -7.347656 11.234375 -7.734375 11.234375 -8.203125 L 11.234375 -22.042969 C 11.234375 -22.507812 11.625 -22.898438 12.089844 -22.898438 Z M 12.089844 -22.898438 "/></g></g></g><g fill="#ad3ecd" fill-opacity="1"><g transform="translate(159.628596, 190.22208)"><g><path d="M 1.710938 -30.242188 L 1.710938 0 L 11.234375 0 L 11.234375 -9.953125 L 11.738281 -9.953125 L 18.816406 0 L 30.4375 0 L 23.402344 -9.953125 L 23.75 -9.953125 C 26.121094 -9.953125 28.066406 -11.894531 28.066406 -14.265625 L 28.066406 -25.929688 C 28.066406 -28.300781 26.121094 -30.242188 23.75 -30.242188 Z M 11.234375 -17.261719 L 11.234375 -22.898438 L 17.726562 -22.898438 C 18.191406 -22.898438 18.582031 -22.507812 18.582031 -22.042969 L 18.582031 -18.152344 C 18.582031 -17.6875 18.191406 -17.261719 17.726562 -17.261719 Z M 11.234375 -17.261719 "/></g></g></g><g fill="#ad3ecd" fill-opacity="1"><g transform="translate(190.250312, 190.22208)"><g><path d="M 0.425781 -30.242188 L 0.425781 -22.898438 L 8.863281 -22.898438 L 8.863281 0 L 18.347656 0 L 18.347656 -22.898438 L 26.785156 -22.898438 L 26.785156 -30.242188 Z M 0.425781 -30.242188 "/></g></g></g><g fill="#ad3ecd" fill-opacity="1"><g transform="translate(217.452341, 190.22208)"><g><path d="M 1.710938 -30.242188 L 1.710938 0 L 26.121094 0 L 26.121094 -7.347656 L 11.234375 -7.347656 L 11.234375 -11.429688 L 21.808594 -11.429688 L 21.808594 -18.777344 L 11.234375 -18.777344 L 11.234375 -22.898438 L 26.121094 -22.898438 L 26.121094 -30.242188 Z M 1.710938 -30.242188 "/></g></g></g><g fill="#ad3ecd" fill-opacity="1"><g transform="translate(245.081828, 190.22208)"><g><path d="M 0.425781 -30.242188 L 10.300781 -15.121094 L 0.425781 0 L 11.777344 0 L 15.976562 -8.589844 L 20.175781 0 L 31.527344 0 L 21.652344 -15.121094 L 31.527344 -30.242188 L 20.175781 -30.242188 L 15.976562 -21.652344 L 11.777344 -30.242188 Z M 0.425781 -30.242188 "/></g></g></g><g fill="#ecf9fc" fill-opacity="1"><g transform="translate(110.792207, 215.437461)"><g><path d="M 2.820312 -11.988281 C 1.863281 -11.988281 1.109375 -11.234375 1.109375 -10.28125 L 1.109375 -6.917969 C 1.109375 -5.964844 1.863281 -5.210938 2.820312 -5.210938 L 7.488281 -5.210938 C 7.890625 -5.210938 8.214844 -4.886719 8.214844 -4.484375 L 8.214844 -2.28125 C 8.214844 -1.878906 7.890625 -1.570312 7.488281 -1.570312 L 1.449219 -1.570312 L 1.449219 0 L 8.136719 0 C 9.09375 0 9.847656 -0.753906 9.847656 -1.710938 L 9.847656 -5.070312 C 9.847656 -6.027344 9.09375 -6.78125 8.136719 -6.78125 L 3.46875 -6.78125 C 3.066406 -6.78125 2.742188 -7.105469 2.742188 -7.503906 L 2.742188 -9.710938 C 2.742188 -10.109375 3.066406 -10.417969 3.46875 -10.417969 L 9.507812 -10.417969 L 9.507812 -11.988281 Z M 2.820312 -11.988281 "/></g></g></g><g fill="#ecf9fc" fill-opacity="1"><g transform="translate(129.710241, 215.437461)"><g><path d="M 0.167969 -11.988281 L 0.167969 -10.417969 L 3.714844 -10.417969 L 3.714844 0 L 5.363281 0 L 5.363281 -10.417969 L 8.90625 -10.417969 L 8.90625 -11.988281 Z M 0.167969 -11.988281 "/></g></g></g><g fill="#ecf9fc" fill-opacity="1"><g transform="translate(146.73391, 215.437461)"><g><path d="M 1.109375 -11.988281 L 1.109375 0 L 2.742188 0 L 2.742188 -4.144531 L 6.070312 -4.144531 L 8.800781 0 L 10.773438 0 L 8.058594 -4.144531 L 8.136719 -4.144531 C 9.09375 -4.144531 9.847656 -4.917969 9.847656 -5.871094 L 9.847656 -10.28125 C 9.847656 -11.234375 9.09375 -11.988281 8.136719 -11.988281 Z M 2.742188 -5.734375 L 2.742188 -10.417969 L 7.488281 -10.417969 C 7.890625 -10.417969 8.214844 -10.109375 8.214844 -9.710938 L 8.214844 -6.425781 C 8.214844 -6.027344 7.890625 -5.734375 7.488281 -5.734375 Z M 2.742188 -5.734375 "/></g></g></g><g fill="#ecf9fc" fill-opacity="1"><g transform="translate(165.544133, 215.437461)"><g><path d="M 1.109375 -11.988281 L 1.109375 0 L 9.0625 0 L 9.0625 -1.570312 L 2.742188 -1.570312 L 2.742188 -5.210938 L 7.351562 -5.210938 L 7.351562 -6.78125 L 2.742188 -6.78125 L 2.742188 -10.417969 L 9.0625 -10.417969 L 9.0625 -11.988281 Z M 1.109375 -11.988281 "/></g></g></g><g fill="#ecf9fc" fill-opacity="1"><g transform="translate(182.814215, 215.437461)"><g><path d="M 4.175781 -11.988281 L 0.167969 0 L 1.863281 0 L 2.957031 -3.175781 L 8.015625 -3.175781 L 9.109375 0 L 10.789062 0 L 6.78125 -11.988281 Z M 3.5 -4.746094 L 5.488281 -10.570312 L 7.472656 -4.746094 Z M 3.5 -4.746094 "/></g></g></g><g fill="#ecf9fc" fill-opacity="1"><g transform="translate(201.732245, 215.437461)"><g><path d="M 1.109375 -11.988281 L 1.109375 0 L 2.742188 0 L 2.742188 -9.277344 L 5.964844 -1.710938 L 6.875 -1.710938 L 10.109375 -9.277344 L 10.109375 0 L 11.726562 0 L 11.726562 -11.988281 L 10.09375 -11.988281 L 6.425781 -3.589844 L 2.742188 -11.988281 Z M 1.109375 -11.988281 "/></g></g></g><g fill="#ecf9fc" fill-opacity="1"><g transform="translate(222.529227, 215.437461)"><g><path d="M 1.109375 -11.988281 L 1.109375 0 L 2.742188 0 L 2.742188 -11.988281 Z M 1.109375 -11.988281 "/></g></g></g><g fill="#ecf9fc" fill-opacity="1"><g transform="translate(234.316439, 215.437461)"><g><path d="M 1.109375 -11.988281 L 1.109375 0 L 2.742188 0 L 2.742188 -9.125 L 8.214844 0 L 9.847656 0 L 9.847656 -11.988281 L 8.214844 -11.988281 L 8.214844 -2.867188 L 2.742188 -11.988281 Z M 1.109375 -11.988281 "/></g></g></g><g fill="#ecf9fc" fill-opacity="1"><g transform="translate(253.234469, 215.437461)"><g><path d="M 2.820312 -11.988281 C 1.863281 -11.988281 1.109375 -11.234375 1.109375 -10.28125 L 1.109375 -1.710938 C 1.109375 -0.753906 1.863281 0 2.820312 0 L 8.136719 0 C 9.09375 0 9.847656 -0.753906 9.847656 -1.710938 L 9.847656 -6.425781 L 5.53125 -6.425781 L 5.53125 -4.839844 L 8.214844 -4.839844 L 8.214844 -2.28125 C 8.214844 -1.878906 7.890625 -1.570312 7.488281 -1.570312 L 3.46875 -1.570312 C 3.066406 -1.570312 2.742188 -1.878906 2.742188 -2.28125 L 2.742188 -9.710938 C 2.742188 -10.109375 3.066406 -10.417969 3.46875 -10.417969 L 7.488281 -10.417969 C 7.890625 -10.417969 8.214844 -10.109375 8.214844 -9.710938 L 8.214844 -9.230469 L 9.847656 -9.230469 L 9.847656 -10.28125 C 9.847656 -11.234375 9.09375 -11.988281 8.136719 -11.988281 Z M 2.820312 -11.988281 "/></g></g></g></svg>